. 
 
http://www.torrenting.com          :     Once & For all ;)


               www . Torrenting . Com 

(((((((((((((= Enjoy No RAR releases =))))))))))))))))))))


...................................NFO:....................................

.                                                                                                     
       
     
     
       
       
     
     
                                         
                                         
                EXVID                    
                                         
         
                                         
         Filled the Archives             
                                         
         
                                         
                With:                    
                                         
         
                                         
                                    
     E240                           
                                    
     SP               (C) 2009      
                                         
     
     
     
                                                                                  
                                                                                   
                Gang.Related.1997.iNTERNAL.DVDRip.XviD-EXViDiNT                     
                                                                                   
                                                                                  
     
                                                                                               
EXViD aims to iNTERNAL those releases which have been lost in the archives.
EXViD aims to PRE non-internal releases which have poor sources and are likely skipped by others. 
http://www.imdb.com/title/tt0118900/
Subtitles: DA, SV, NO, FI
Date: 2012.02

Director: Jim Kouf

Genres: Crime | Drama

Plot:
Two corrupt cops murder an undercover DEA agent by mistake, and frantically try to cover their
tracks by framing a homeless man for the crime. That involves juggling evidence, coaching
witnesses, and improvising to keep their desperate scheme from unraveling.

Cast:
James Belushi	...	Det. Frank Divinci
Tupac Shakur	...	Det. Rodriguez
Lela Rochon	...	Cynthia Webb
Dennis Quaid	...	Joe Doe / William
James Earl Jones	...	Arthur Baylor
David Paymer	...	Elliot Goff
Wendy Crewson	...	Helen Eden
Gary Cole	...	Richard Simms
Terrence 'T.C.' Carson	...	Manny Landrew
Brad Greenquist	...	Richard Stein
James Handy	...	Capt. Henderson
Kool Moe Dee	...	Lionel Hudd
Victor Love	...	Hooper
Robert LaSardo	...	Sarkasian
Perry Anzilotti	...	Vic

Stats:
Format                                   : AVI
Format/Info                              : Audio Video Interleave
File size                                : 702 MiB
Duration                                 : 1h 46mn
Overall bit rate mode                    : Variable
Overall bit rate                         : 920 Kbps
Writing library                          : VirtualDub build 32842/release

Video
ID                                       : 0
Format                                   : MPEG-4 Visual
Format profile                           : Advanced Simple@L5
Format settings, BVOP                    : 2
Format settings, QPel                    : No
Format settings, GMC                     : No warppoints
Format settings, Matrix                  : Default (H.263)
Codec ID                                 : XVID
Codec ID/Hint                            : XviD
Duration                                 : 1h 46mn
Bit rate                                 : 787 Kbps
Width                                    : 624 pixels
Height                                   : 272 pixels
Display aspect ratio                     : 2.25:1
Frame rate                               : 25.000 fps
Color space                              : YUV
Chroma subsampling                       : 4:2:0
Bit depth                                : 8 bits
Scan type                                : Progressive
Compression mode                         : Lossy
Bits/(Pixel*Frame)                       : 0.185
Stream size                              : 600 MiB (85%)
Writing library                          : XviD 64

Audio
ID                                       : 1
Format                                   : MPEG Audio
Format version                           : Version 1
Format profile                           : Layer 3
Mode                                     : Joint stereo
Mode extension                           : MS Stereo
Codec ID                                 : 55
Codec ID/Hint                            : MP3
Duration                                 : 1h 46mn
Bit rate mode                            : Variable
Bit rate                                 : 121 Kbps
Channel(s)                               : 2 channels
Sampling rate                            : 48.0 KHz
Compression mode                         : Lossy
Delay relative to video                  : 5ms
Stream size                              : 92.1 MiB (13%)
Alignment                                : Split accross interleaves
Interleave, duration                     : 24 ms (0.60 video frame)
Interleave, preload duration             : 843 ms



Release notes:
Enjoy!

Looking for:
75TB+ Archives
DUTCH/FLEMiSH Archives
                                                                                                    
Greets: CRBS EPiSODE FiCO FLS iLS KLASSiGER LiPSYNC MADE NODLABS RUNNER SPRiNTER      
   

                                                                    ASCII DONE BY XX^NFO 2oo9     
 

RLS-Crc: 415243414445:42EECD90